<?xml version="1.0" encoding="UTF-8"?>
<svg id="Layer_1" xmlns="http://www.w3.org/2000/svg" version="1.1" viewBox="0 0 595.28 841.89">
  <!-- Generator: Adobe Illustrator 29.5.1, SVG Export Plug-In . SVG Version: 2.1.0 Build 141)  -->
  <g id="zzIEab.tif">
    <g>
      <path d="M179.98,35.35c2.69,2.3,8.03,1.96,11.54,1.56,2.08-.24,4.63-1.18,6.32-2.4.65-.47,6-7.04,6.37-7.72,1.6-2.99.45-6.31,1.19-8.87.31-1.05,2.63-2.78,3.53-3.86,1.33-1.59,1.18-4.68,5.33-1.92,2.88,1.92-1.24,4.49-2.12,6.47-1.36,3.03-1.86,15.26,1.22,17.24,7.24,4.67,21.57-3.72,29.16-3.53,1.34.03,4.73,1.37,4.34,2.89-6.16,5.71-12.22,11.56-17.48,17.93-1.65,2-4.55,2.49-2.97,5.88.39.84,1.95,1.72,2.63,2.73,5,7.45,5.8,5.57,11.72,10.42,4.37,3.58,1.92,4.56,3.06,9.02.65,2.56,3.48,4.06,4.08,5.98,2.38,7.58-4.84,7.19-5.1,10.47-.29,3.64,4.85,5.46,5.36,8.73.29,1.88.24,6.01-.12,7.88-.42,2.19-2.79,2.18-2.52,3.46,2.49,1.34,2.72,4.48,3.99,6.08.87,1.09,13.18,11.64,14.14,12.02,1.95.78,7.89.66,10.86,1.22,2.13.4,6.62,1.48,8.57,2.17,4.23,1.49,20.25,17.22,23.27,21.33,1.06,1.44,1.22,3.35,2.22,4.83,1.58,2.33,5.6,5.63,7.76,7.7.95,1.72-.63,2.61-1.71,3.71v.97c2.53.2,2.16,2.8,3.34,4.4,2.14,2.91,12.04,13.48,14.81,15.38,4.35,2.98,14.53,3.05,19.69,2.33,4.27-.59,16.74-7.49,20.73-10.13,14.66-9.73,26.7-21.91,43.25-29.2,10.71-4.71,25.43-10.38,36.51-13.8,7.41-2.29,17.06-3.49,24.02-6.17,2.17-.83,3.24-3.07,5.12-4.27,3.1-1.97,7.32-1.89,9.87-3.55,1.32-.86,1.57-2.22,2.5-2.87,8.47-5.88,16.79-6.36,24.97-10.59,10.52-5.44,17.02-15.68,25.3-22.33,3.12-2.51,7.93-3.92,11.05-6.39,7.46-5.92,11.44-13.25,15.85-21.05.83-1.47,2.79-2.44,3.55-3.83,1.07-1.92.68-4.81,2.02-6.03,2.32-2.12,8.94-1.64,9.65,1.89.97,4.81-5.16,7.35-5.81,10.05-.48,1.99,2.23,3.9.73,7.4-.9,2.09-3.06,2.62-3.98,3.73-1.48,1.79-8.03,10.01-8.83,11.64-1.11,2.29-1.23,5.54-2.5,7.57-1.45,2.31-4.47,2.5-5.97,4.77-2.45,3.72-1.84,6.11-6.13,10.64-5.57,5.89-8.81,7.39-14.35,14.49s-10.47,6.93-17.22,9.97c-1.66.75-6.94,10.4-9.9,13.21-11.18,10.59-23.46,20.02-34.92,30.16-12.55,11.1-22.8,32.31-33.85,45.79-5.61,6.85-12.38,13.86-18.45,19.98-13.47,13.59-28.09,25.85-43.97,36.53-7.35,14.39,8.22,12.98,17.73,11.7,2.49-.34,5.45-1.94,8.11-1.94s5.32,1.55,7.53,1.85c6.46.86,19.65,1.93,25.48-.37,1.96-.77,3.25-2.62,4.85-3.2,11.52-4.12,26.15-1.66,37.85-3.07,6.97-.84,4.16-4.28,7.76-8.34,5.33-6.02,16.06-6.57,23.38-8.82,8.67-2.67,23.14-9.3,32.01-8.27,5.19.61,2.93,3.31,4.51,6.9,2.83,6.47,10.28,13.71,16.65,16.9,1.14,2.68,9.22,8.08,8.59,10.61-.06.24-2.28,3.71-2.58,4.01-2.29,2.41-23.69,10.57-28.01,11.76-5.78,1.58-11.25,3.18-17.08,5.06-11.24,3.62-16.81,2.12-27.51,4.01-4.91.87-6.72,2.5-10.79,3.96-6.65,2.39-5.19-.28-9.49-.83-8.3-1.06-20.83.85-28.52-1.66-2.25-.73-4.07-2.41-6.44-2.95-15.05-3.46-47.3,2.8-63.48,5.51-6.64,1.11-14.91,3.82-21.07,4.42-3.22.31-21.68-2.33-24.55-3.46-6.79-2.67-9.16-8.58-18.45-10.4-15.15-2.96-43.85-3.62-57.67,3.07-11.88,5.76-18.32,9.46-31.43,13.51-1.21.38-2.3,1.74-3.45,1.93-2.19.36-4.6-1.54-6.61-1.85-4.16-.65-10.63.03-14.58-.85-2.71-.61-2.6-3.54-4.87-3.9-1.17-.18-10.55,1.95-9.66-2.26.15-.74,7.35-5.79,8.53-6.26,3.53-1.42,3.72-.24,6.57-.15,4.67.15,4.12-3.61,6.7-4.06,3.96-.68,9.94,3.52,13.07-.31s-2.61-5.55-5.78-5.7c-2.95-.14-5.27,2.37-9.71,1.01-3.42-1.04-2.7-3.81-3.95-5.46-.8-1.05-4.06-1.16-1.08-4.33,1.41-1.51,8.59-4.65,11.04-6.4,7.52-5.35,10.79-9.5,9.39-19.33-.68-4.75-5.26-7.44-9.76-7.74s-11.82,1.27-16.67,1.16c-1.9-.04-6.72-.71-7.74-2.35-2.41-3.9,2.21-3.13,3.06-4.87.6-1.22,0-2.92.64-4.05.74-1.31,4.05-1.24,5.52-1.86,7.35-3.09,8.33-10.25,13.94-14.9,2.67-2.22,4.68-3.58,7.7-.98,2.44,2.09,1.62,4.52,2.22,7.17.98,4.35,1.63,8.7,4.22,12.56,4.85,7.22,17.93,18.29,25.49,8.14,2.17-2.91.62-14.62-.46-18.42-1.47-5.19-9.33-17.16-13.68-20.53-3.74-2.9-11.32-8.72-15.15-11.01-1.13-.68-2.74-.41-3.78-1.26-.44-.36-6.97-7.57-7.54-8.36-2.08-2.9-5.08-11.46-7.7-12.95-2.46-1.4-5.06.06-7.99-1.4-5.97-2.97-11.42-13.26-18.61-16.28-4.29-1.8-11.6-2.09-14.68,1.95s-3.56,7.87.31,11.76c3.6,3.62,6.66,2.52,10.6,3.49,8.64,2.12,10.07,6.87,16.43,11.93,3.08,2.44,6.5,1.48,7.94,2.6,1.57,1.23.47,4.61,1.7,7.03,1.04,2.05,3.96,3.43,5.3,4.95.8.9,4.24,5.75,3.99,6.5s-1.62.8-1.84,1.18c-.97,1.65,1.17,5.19-4.2,3.58-6.9-2.06-19.01-19.06-26.17-21.51-1.87-.64-3.01.48-5.18-.09-3.12-.82-6.14-4.91-9.53-5.97-.24-.08-4.66-.83-4.92-.83-5.32.12-2.25,5.94-6.49,6.56l.07.9c4.87,7.5,14.75,14.86,15.97,24.3,1.26,9.79-1.14,25.18-6.65,33.49-1.86,2.81-4,3.63-5.96,6.13.97,1.9,1.66,3.97,2.73,5.82,1.63,2.81,3.93,4.49,5.47,6.68s1.26,2.98-.47,4.96c-7.57,8.66-18.94,14.43-30.43,15.52-3.05.29-7.04-2.42-9.74-1.73-.88.22-1.76,1.36-3.02,1.71-4.48,1.25-8.89,1.12-12.87,3.9-1.87,1.31-2.95,3.66-5.28,4.42v1.8s3.26,3.15,3.26,3.15c.24,2.33-1.84,1.94-2.06,2.78-1.28,4.97,2.95,12.88,5.76,16.93,1.63,2.35,10.7,12.31,12.79,13.38,2.7,1.37,5.96.26,8.79,1.94,1.3.77,1.59,1.94,2.64,2.73,10.53,7.9,19.33,14.03,32.26,17.38,6.59,1.71,11.57.2,17.11,1,7.9,1.14,20.01,6.84,28.64,8.92,6.01,1.44,15.12,3.48,21.12,3.69,4.47.16,12.14-1.55,16.61-2.9,6.67-2.02,16.38-8.04,22.48-9.04s17.29,5,21.26,9.94c.98,1.21,6.02,9.59,6.55,9.88.81.45,2.79,0,4.06.31,8.4,2.06,37.05,20.02,39.77,27.98.33.96.42,1.94.35,2.94-.39,1.72-9.95.61-11.48.14-1.77-.55-2.63-2.56-4.03-3.35-5.57-3.14-7.02-5.29-11.69-8.43-3.89-2.61-12.87-5.57-17.43-4.68-1.84.36-7.63,6.7-6.98,8.91.14.48,6.21,6.58,6.97,7.17,2.38,1.86,6.26,3.39,8.75,5.37,1.87,1.49,7.43,7.47,8.66,9.42.98,1.55,1.82,10.13,1.58,12.2-.53,4.58-8.18,14.87-13.02,15.28-1.78.15-2.95-.98-4.98-.39s-6.95,5.02-9.71,6.44c-8.67,4.46-22.66,6.05-32.03,3.18-7.03-2.16-7.9-6.67-12.92-10.56-12.38-9.61-21.84-8.6-35.9-3.02-.38,1.68.29,1.32.84,1.88,1.5,1.56,4.19,3.24,5.64,4.72,3.35,3.42,6.25,7.4,9.79,10.67.72,3.44,1.93,9.41-2.65,10.42-6.86,1.51-9.63-1.96-15.29-2.53-4.84-.49-20.83-.22-25.34.8-2.1.48-3.01,2.77-5.54,3.18-4.83.77-15.59-.28-20.42-1.64-3.17-.89-4.71-2.9-7.24-4.15-3.2-1.58-11.87-2.49-12.22-5.93-.56-5.52,7.51-5.56,8.96-9.81,1.67-4.91-1.17-7.48-5.42-9.14-7.62-2.98-16.48-4.9-24.11-8.09-5.18-2.17-17.91-8-8.07-13.67,4.3-2.48,26.66-5.04,26.66-10.93-1.92-3.51-4.69-6.2-8.38-7.74-2.09-.87-4.55-.86-6.64-2.08-2.63-1.54-5.57-5.33-8.84-6.59-4.3-4.83,4.54-7.05,8.08-7.4,9.35-.92,20.09.77,29.53.02,4.3-.34,8.35-2.16,12.81-2.62,6.93-.72,15.6-.45,22.07-4.09,1.95-1.1,4.24-2.86,2.67-5.39-.37-.59-1.7-.94-2.35-1.67-4.52-5.12-10.22-6.04-16.77-8.05-9.79-3.01-19.87-5.36-29.51-8.73-3.52-1.23-14.86-9.13-17.79-11.73-1.93-1.72-4.53-5.65-6.69-7.39s-5.58-3.08-7.4-4.68c-2.32-2.03-4.53-5.85-7.37-8.06-1.8-1.4-4.72-2.38-6.32-3.74-2.23-1.9-4.41-5.55-7.11-7.65-4.27-3.33-8.74-5.82-13.38-9.42-7.65-5.94-23.97-9.22-33.55-8.7-4.01.22-11.91,2.41-15.25,1.88-2.98-.47-11-5.56-10.99-8.93,0-.35,2.19-6.26,2.39-6.57,2.48-3.71,8.1-6.39,11.39-8.9,8.58-6.54,14.56-13.61,25.54-17.39s27.34-7.47,38.23-4.72c3.2.81,6.59,4.06,10.06,5.37,2.2.83,4.35.91,6.4,1.65,8.3,3.03,20.84,9.62,29.1,3.68.51-.37,5.78-5.7,6.01-6.06,1.43-2.25.26-5.21,1.04-7.68.67-2.15,3.7-3.32,4.26-5.81s.54-18.12,0-20.52c-.31-1.37-4.4-5.82-5.63-7.12-3.94-4.16-7.73-5.83-11.71-9.09s-7.83-9.18-11.69-12.46-11.64-7.32-15.45-10.71c-10.7-9.5-20.79-19.3-31.87-28.51-2.1-1.74-18.55-18.55-19.09-19.82-.87-2.04-.38-6.06-1.17-8.23-.35-.96-8.34-5.9-9.98-6.8-3.6-1.97-9.37-2.48-11.28-6.89,2.96-3.18,5.67-6.8,8.66-9.95,3.17-3.34,9.76-8.18,12.11-11.37.95-1.29.88-3.73,1.95-5.25,1.49-2.1,5.91-5.29,7.42-7.51,2.04-3.01,3.99-7.21,5.73-10.37.78-1.42,2.68-2.23,3.49-3.89,1.3-2.67.36-5.15,1.12-7.6.6-1.93,3.18-3.11,3.89-4.83.75-1.82.16-3.63.85-5.19.54-1.22,3.11-2.36,3.54-3.84,1.31-4.48-1.57-11.59,1.58-15.87.7-.95,1.97-1.33,2.52-2.18,1.94-3.05.23-29.94.72-36.18.31-3.93,1.55-5.64,5.77-6.31,8.27-1.31,4.72,4.76,5.8,9.55.62,2.77,4.77,4.16,3.21,8.53,5.47-1.98,15.73,1.68,20.39-1.41,1.79-1.19,1.5-3.45,2.49-4.89,1.79-2.59,6.29-6.22,8.02-9.43.54-1,.73-1.94.62-3.06l5.38.99c1.12,2.05.48,4.1,1.71,6.34.19.34,4.54,5.36,4.98,5.76,3.64,3.31,11.36,3.76,15.98,2.56,3.45-.9,4.09-3.19,6.61-4.8,3.58-2.29,11.98-6.87,15.02-1.83,2.38,3.95-3.66,7.99-3.08,11.17.3,1.61,4.59,7.32,5.92,8.46ZM145.4,159.17c-1.75-1.54-6.96.17-9.59-.14-1.81-.21-3.7-1.88-5.02-1.07-1.5,1.15-.93,3.32-1.47,4.63-.41,1-1.7.89-1.88,1.6-.56,2.23-.58,5.12-1.69,7.6,3.52,3.81,8.23,2.36,12.75,2.66,3.73.24,7.84,1.47,11.74.32,3.95-3.54-2.16-4.81-2.59-6.15-.5-1.55.48-3.12.24-4.33-.06-.28-2.28-4.93-2.5-5.12ZM131.38,182.6c-.46-.38-1.97.1-2.76-.24-1.93-.83-3.29-3.33-6.52-1.53-2.92,1.62-1.18,4.95.05,7.17,1.04,1.89,4.28,5.39,5.98,6.91,2.33,2.1,12.17,9.52,14.47,5.01.68-1.33-2.21-7.2-3.07-8.9-.19-.38-.96-.3-1.29-.98-.27-.56.09-1.88-.37-2.85-.99-2.07-4.04-.76-5.45-1.94-.88-.74-.75-2.42-1.03-2.65ZM75.6,307.5c-4.76-2.93-15.26-2.52-20.83-2-1.82.17-3.87,1.45-3.78,3.48.06,1.22,1.29,1.59,1.58,2.32.38.96-.65,2.6,1.56,3.23,3.97-.76,23.8,5.41,25.69,2.81.49-1.44-1.84-2.24-1.85-3,0-.42,1.73-1.87,1.22-3.95-1.86-.34-2.99-2.52-3.6-2.9ZM173.21,472.85c-.4-.72-.1-1.73-.15-2.54-4.72,2.74-10.33,6.54-4.23,11.29,4.28,3.34,7.39,4.04,12.29,1.45-1.73-1.83-2.07-5.41-3.33-7.06-.77-1-4.33-2.7-4.57-3.14Z"/>
      <path d="M425.75,462.07c-2.15,2.6-3.18,1.86-3.75,6.64-1.36,11.54,3.2,20.31-5.13,30.43-1.17,1.43-3.37,1.75-3.56,3.61.04.99,3.39,4.03,4.2,5.19.55.8.38,2.11,1.34,3.35.44.57,10.15,8.03,11.33,8.8,7.07,4.6,11.6,3.22,19.27,1.57,13.53-2.91,26.7-7.71,40.57-9.08,16.55-1.63,20.97,5.84,34.54,11.06,8.75,3.36,18.94,6.34,28.03,9.54,9.2,3.23,21.7,5.88,29.86,11.06,1.66,1.05,3.45,1.95,4.24,3.88.57,1.31-.67,1.97-1.44,2.69-7.41,6.94-31.18,19.62-41,24.07-14.68,6.66-30.96,8.61-46.7,11.66-2.76,3.18-8.46,7.88-5.91,12.31,3.89,2.61,8.35,5.8,11.79,9.01,2.13,1.99,13.1,13.13,14.04,14.81,1.37,2.47.56,4.98,1.39,6.67.43.88,2,1.23,2.66,2.03,2.84,3.44.27,9.34,1.89,14.21.7,2.11,2.82,3.78,3.15,5.57,1.04,5.68,1.57,27.71-.36,32.46-.62,1.54-2.2,2.64-2.8,4.58-1,3.23-.22,7.75-1.05,11.71-.65,3.11-3.37,6.54-3.64,7.75-.45,2,.09,3.93-.21,5.84-.74,4.66-10.07,7.97-11.99,12.02,1.16,6.72,36.03,12.55,42.88,14.86,4.46,1.5,14.13,6.64,18.32,9.19,19.21,11.68,4.37,17.74-8.76,22.51-12.79,4.65-24.8,6.18-37.87,9.09-29.02,6.46-57.3,12.63-86.68,16.63-9.08,1.24-16.69,5.01-25.35,7.52-16.04,4.65-33.17,7.19-49.36,11.02-5.71,1.35-30.71,4.61-33.06,7.86-1.29,1.8-.16,4.31-2.38,6.34-3.11,2.84-6.8,1.95-9.84,2.91-1.01.32-1.39,1.58-2.83,1.86-8.12,1.6-24.85-.36-34.23-.02-7.69.28-16.04,3.09-23.97.55-2.84-.91-5.7-3.12-8.55-4.19-41.64-15.67-83.8-31.52-125.8-46.61-13.85-4.98-27.95-10.27-40.32-18.04-3.01-1.89-6.57-2.33-9.42-4-1.56-.92-5.96-4.27-5.2-6.21.1-.26,3.58-3.78,3.98-4.02,4.34-2.61,21.5-4.83,27.61-5.94,24.69-4.46,49.74-7.28,74.42-11.44,3.8-.64,14.01-.64,16.07-4.74,1.9-3.78-6.74-8.82-9.53-10.62-2.48-1.6-6.96-2.45-7.96-5.45-.48-1.45-.17-3.01-.81-4.56-.77-1.87-3.5-2.93-4.05-5.34-.4-1.76-.37-5.89.16-7.61s2.63-2.91,3.63-4.42c.75-1.13.79-2.81,1.51-3.85s2.17-1.35,2.91-2.46c1.41-2.1,1.51-13.6.74-16.1-.72-2.36-7.47-6.8-8.58-9.53-2.93-7.16,3.89-10.25,7.91-14.56,4.79-5.14,7.26-8.21,10.75-14.07.76-1.28,2.82-2.36,3.29-3.42,1.31-2.88-.48-8.73.64-12.11.12-.36,4.53-5.27,5.04-5.7,8.51-7.23,20.09-8.06,29.57-13.37,2.57-1.44,7.91-3.77,4.69-7.4-2.08-2.35-19.69-5.59-23.27-5.45-2.49.1-4.27,1.36-7.17,1.05-4.04-.44-3.84-4.45-8.43-2.65-2.83-3.83,4.31-9.41,7.69-9.31,1.23.04,2.14,1.19,3.37,1.27,5.07.33,10.54-.83,15.37,2.06,7.66-.66,18.13,2.06,25.51.63,2.94-.57,3.34-6.39,7.7-7.77,2.46-.78,2.87.6,4.55.93,4.15.83,6.59-2.77,10.56-2.59,2.29.1,3.77,1.8,5.72,2.39,10.41,3.16,26.13-.44,37.17,1.07,4.09.56,6.96,3.64,10.47,4.96,6.03,2.28,18.97.87,25.78.99,37.81.68,78.52,1.74,116.74-1.99,27.29-2.66,66.06-12.65,91.93-22.11,2.17-.79,5.04-1.33,3.25-4.12l-20.36-9.7c-6.2,1.88-7.06-4.63-13.19-5.45-5.23-.7-4.21-1.17-9-3.2-8.94-3.8-18.88-5.02-27.77-9-4.73.55-37.15,4.53-38.51,6.72-.42.68.19,2.39-.39,3.3-1.31,1.98-7.82-.72-10.11-.76-2.64-.05-4.27,1.28-6.08,1.36-1.31.05-2.64-.85-3.87-.66-.48.07-.43,1.18-1.28,1.57-1.63.75-6.56,2.32-8.21,2.36-6.25.13-13.47-5.84-18.49-2.24-4.43,3.18-11.04,14.17-15.52,15.34-5.41,1.42-12.18-.29-17.62.49-8.74,1.25-17.87,4.69-26.87,5.33-13.94.99-34.96.9-48.96,0-7.57-.49-14.81-2.88-22.21-3.96-14.85-2.15-31.13-1.97-46.23-3.41-15.85-1.5-32.46-5.58-48.37-6.63-1.74-.11-3.43-.26-5.17.06-3.04.57-4.81,5.14-2.44,7.54,3.28,3.33,17.94,3.87,22.95,5.22,1.41.38,2.38,1.72,3.55,1.83s2.58-.69,3.98-.7c6.58-.04,28.25.22,33.07,3.23,1.15.72,1.45,2.01,2.36,2.41,1.46.65,4.67-.02,6.7.59,2.28.69,7.35,4.05,7.08,6.78-.05.5-1.95,3.69-2.36,3.8-4.78,1.34-9.11-2.69-12.65-3.33-2.65-.47-20.66-1.16-22.63-.57-1.32.39-2.01,2.26-3.19,2.85-2.21,1.1-13.85.74-15.68-.38-.79-.49-.89-1.71-1.89-2.15-5.95-2.66-24.88-.84-32.37-1.13-5.19-.2-18.65-.59-22.96-1.86-3.01-.89-8.39-5.55-9.86-8.25-.75-1.37-.33-2.93-1.75-4.28-3.06-2.92-11.07-5.44-14.68-8.12-2.13-1.58-6.46-7.41-6.11-9.98.22-1.62,1.97-2.22,2.62-3.49,2.07-4.07,1.19-6.2,6.67-8.09,5.95-2.05,7.69.33,12.59,1.09,22.73,3.52,45.46,6.69,68.32,10.16,2.1.32,4.08,1.63,6.15,1.9,20.85,2.77,42.02,3.04,62.99,4.76,4.64.38,9.47,2.28,14.11,2.66,26.93,2.22,57.87-.96,85.01-.84,7.21-2.32,11.7-6.55,17.34-10.84,3.43-2.61,9.68-5.64,11.41-10.1s-3.24-3.48-2.39-7.09l-.76-.59-22.75,2.01c-1.45.31-5.26-1.33-4.97-2.98,5.96-8.37,16.67-7.58,25.43-10.84,2.57-.95,16.28-8.02,17.17-9.71l.2-.89c-2.12-1.88-2-5.45-3.35-7.42-.66-.95-6.55-5.8-6.66-6.25-.8-3.28,2.27-3.92,2.61-5.37.39-1.66-1.69-8.27,1.89-9.51,1.95-.68,1.46,1.04,2.64,1.83,1.38.92,3.58,1.35,4.76,2.32,3.08,2.53,4.42,9.86,10.31,4.85.75-.64,6.96-7.47,7.38-8.04.82-1.12.66-2.75,1.38-3.99,3.07-5.31,14.39-3.49,9.78,2.08ZM393.53,623.5c-12.5-15.15-50.29-13.94-68.52-14.99-26.75-1.53-49.34-7.08-77.08-3.28-17.04,2.33-29.88,14.23-39.71,27.38-1.8,2.41-4.39,4.41-5.46,7.29-2.28,6.16-7.5,16.9-8.23,23.36-.12,1.04-.77,8.87-.74,9.34.14,2.13,1.75,2.41,2.07,4.02.64,3.28-.55,7.5.3,11.11,2.54,10.82,9.53,21.94,12.62,33,1.09,3.89,9.95,15.55,13.08,18.64,2.08,2.06,3.68,1.48,5.55,2.31,27,11.81,62.98,28.29,92.92,27.22,14.39-.52,44.32-7.85,56.16-16.11.3-.21,4.71-4.41,4.85-4.72.61-1.41.07-2.92.5-4.2,3.58-10.65,13.92-17.64,19.85-26.42,4.77-7.06,1.89-14.41,2.78-22.07,2.51-21.66,1.48-40.44-5.96-60.55-1.52-4.12-1.92-7.62-4.99-11.34ZM519.79,754.03c1.01-1.72-3.42-5.63-5.46-5.18-1.17.26-2.26,2.35-3.87,1.64-3.45-2.11-8.06-5.84-11.89-6.94s-14.93-.37-19.22.55c-10.41,2.24-18.54,10.93-27.74,15.19-5.77,2.67-14.42,3.33-18.64,8.85-4.57,5.98,10.52,7.21,14.14,6.77,5.02-.62,9.27-6.25,15.48-7.32,13.03-2.25,41.37,1.79,50.31-7.71.48-.51.45-1.66,1.24-2.44,1.25-1.24,4.02-2.54,5.65-3.41ZM235.91,788.53c-.74-.91-6.05-5.04-7.18-5.3-2.3-.54-2.39,1.34-4.69.8-1.69-.4-3.08-2.22-4.54-2.91-18.4-8.81-38.04-15.15-56.86-22.96-9.65-4-15.69-9.66-27.51-8.76-6.39.49-5.98,1.03-8.08,6-.49,1.17-2.66,1.92-1.3,4.1.98,1.56,18.75,6.64,21.67,7.18,6.82,1.28,15.21-.07,19.64,6.53s-12.96,2.45-15.1,2.35c-6.41-.29-13.52-.18-19.82.71,5.25,4.58,19.05,12.04,25.82,12.07,1.27,0,2.58-.71,4-.7,14.79.08,29.46-.62,44.24-1.25,4.78.67,6.38,6.53,12.1,8.7,1.53.58,10.43,3.32,11.42,3.38,2.76.16,6.28-.84,8.98-1.49,1-1.59-1.66-7.04-2.8-8.43ZM234.64,756.27c-.96-.55-3.26.15-4.76-.28-1.58-.45-2.27-3.07-4.11-3.16-.98-.05-2.58.69-4.07.69s-3.62-.86-4.56-.63c-3.31.79-.87,3.43-.66,4.45.55,2.7.17,5.4,2.9,7.16,3.04,1.96,10.74,1.79,14.38,4.42,4.65.54,4.13-1.96,6.19-2.58s7.27,1.09,7.58-.5c.1-.55-1.06-3.32-1.61-3.73-1.28-.98-5.09-.54-7.58-1.82-2.12-1.09-3.27-3.77-3.69-4.01ZM384.92,776.37c-1.04-.62-7.89,2.32-10.28,2.56-4.56.45-10.55.4-15.43.67-25,1.36-50.76-1.07-75.13.68-1,.07-1.94-.52-1.66,1,3.35,2.07,6.92,3.77,10.27,5.83,3.9,2.39,10.51,7.62,15.04,8.49,2.42.47,6.47-1.01,9.85-.51,4.28.63,8.45,4.12,12.97,5.14s11.27,1.25,15.94.88c8.39-.66,11.86-6.27,20.17-7.33,10.48-1.34,23.67-.97,32.81-7.44,2.68-1.9,3.51-2.18,3-6.05-4.71.53-11.09,1.55-15.38-1.05-1.4-.84-1.9-2.69-2.18-2.85Z"/>
      <path d="M392.88,403.01c-2.93,2.65-6.35,1.7-9.44,2.3-2.43.47-4.65,1.26-6.94,1.78-2.1.47-5.87-.72-6.24,2.54-.15,1.29.68,2.46.63,3.39-.28,5.29-1.9,10.61,2.07,15.36,1.05,1.26,10.97,5.76,7.4,8.06l-2.69.65c4.74,1.82,2.54,11.06,2.97,11.75.66,1.06,3.41,1.37,4.23,2.19.2.2,2.68,4.69,2.72,4.97.42,2.55-4.95,6.29-6.55,8l1.32,2.95c-1.01.93-6.02-1.73-7.19-1.88-1.24-.15-2.4.62-3.78.51-.76-.06-9.16-1.65-9.62-1.81-5.38-1.86-4.48-4.8-6.88-7.91-1.79-2.31-5.81-5.42-7.75-7.67-8.53-9.9-2.73-7.34,5.04-10.43.96-.38,4.23-1.49,4.06-2.67-.43-3.08-6.49-2.66-7.98-5.49l1.25-5.58c-2.09.27-4.13-.77-4.64-2.93l5.31-4.12c-1.6-3.19-11.1-5.85-12.38-7.75-2.29-3.39.02-8.32,3.49-9.88,5.85-2.63,11.04-.23,17.19-.92,2.92-.33,8.94-1.55,11.87-2.22,6.88-1.58,11.55-7.4,20.01-3.33,3.81,1.83,5.96,7.02,2.55,10.12Z"/>
      <path d="M434.01,362.29c2.17.58,11.52,1.97,12.44,3.33,2.85,4.2-4.88,5.72-6.91,7.17-1.91,1.37-3.37,4.05-6.25,5.22-3.86,1.57-5.5.09-8.28.39-2.14.23-2.75,2.28-3.92,2.87-1.47.75-5.91,1.92-7.52,1.86-2.14-.08-12.56-3.71-13.34-5.59-1.94-4.73,7.91-9.56,10.95-11.59,2.8-1.87,2.51-1.58,5.55-3.16,3.82-1.98,13.06-9.78,16.46-8.8,2.12.61,3.13,2.28,2.72,4.45-.29,1.53-2.04,2.24-1.91,3.84Z"/>
      <path d="M468.65,553.76c2.61,1.65,7.16,9.66,1.13,10.31-2.05.22-2.16-1.72-2.7-1.83-3.07-.65-6.41.04-9.24.02-15.98-.1-31.77.86-47.64-.71-1.87-.18-5.6-.7-5.75-3.05-.1-1.47,1.15-2.08,1.27-2.78.16-.91-1.58-1.83-1.23-3.2.53-2.1,6.57-.38,8.35-.32,14.8.43,29.56-.93,44.34-.74,2.17-.29,2.75,2.48,4.7,2.75,2.73.38,3.15-2.72,6.76-.44Z"/>
      <path d="M479.41,349.35c-2.32,2.54-8.3,5.98-11.68,6.75-1.52.34-3.2-.14-4.4.15-.62.15-.77,1.44-1.55,1.93-7.02,4.36-9.48-.23-16.33-2.29-3.2-.96-7.15.3-7.29-5.31-.2-7.67,6.28-8.07,12.26-8.43,9.89-.6,21.57-1.12,29.58,5.39.39.47-.27,1.47-.59,1.82Z"/>
      <path d="M162.77,571.87c.18.1.31.83.72,1.08,2.88,1.74,4.26.9,4.26,5.62-.41,2.13-18.95,5.44-21.94,5.72-3.53.32-17.06.14-18.23-3.74-1.92-6.34,4.33-9.22,9.57-9.62,3.79-.29,23.29-.35,25.62.94Z"/>
      <path d="M259.52,366.24c-3.4.05-3.4,2.84-6.08,3.67-3.29,1.02-3.92-.91-5.48-.77s-3.98,3.16-6.14,3.17c-2.52.01-8.78-7.28-2.97-7.7-1.68-7.91,4.03-6.05,7.56-8.29.92-.58.91-3.1,2.4-4.47,2.31-2.12,8.7-1.92,11.71-1.55,9.96,1.22.58,6.16-.63,9.95-.63,1.97-.08,4.01-.38,5.99Z"/>
      <path d="M374.47,344.01c.87.89,14.04,2.54,11.61,6.89-.48.87-2.05,1.18-2.68,2.04-1.71,2.33.3,3.87-4.73,4.03-7.36.23-7.9-4.88-10.17-5.31-.65-.12-2.47,1.1-3.9,1.26-2.85.33-5.6-.41-8.38-.71-1.08-4.4,3.75-5.66,6.46-7.58.73-.51.82-1.95,2.4-2.64,1.04-.45,5.65-1.25,6.71-1.06,2.7.48,2.01,2.38,2.68,3.07Z"/>
      <path d="M350.65,649.65c.22.1.3.9.69,1.11,2.46,1.32,11.54,5.96,12.52,7.47.67,1.03,6.72,13.1,6.92,13.87,1.99,7.74,2.2,14.06,5.26,22.25,1.07,2.86,3.53,2.42,1.46,6.93-4.21,9.17-25.37,19.11-34.72,22.96-2.51,1.03-9.65,4.26-11.37,4.77-1.87.56-2.88-.46-4.31-.34-6.53.54-7.41,5.26-15.5,4.62-1.7-.13-3.32-1.03-4.8-1.09-3.49-.15-7.15.68-10.62.42-5.38-.4-7.85-4.41-12.91-5.2-5.39-.83-15.64,1.48-19.28-3.53-.92-1.26-1-2.93-1.79-4.25-2.3-3.84-6.02-2.85-8.57-5.52-1.26-1.32-1.59-3.17-2.74-4.64-1.33-1.71-4.94-3.92-5.54-5.19-1.04-2.22.05-11.87.32-14.79.1-1.09,1.05-2.17,1.08-3.49.08-2.71-2.02-6.01-1.93-8.72.04-1.27,1.71-6.04,2.43-7.01,3.72-4.99,19.47-10.61,25.6-14.61,3.94-2.57,10.44-11.23,14.7-11.42,1.57-.07,4.09,1.86,5.46,1.03,2.49-1.52-.59-3.91.81-4.9,1.47-1.04,6.99-1.38,8.69-.66,6.1,2.57,15.77,1.89,23.1,3.07,5.99.96,19.72,4.45,25.04,6.84ZM285.76,669.57c-1.73-.18-3.94.38-5.57-.13-1.98-.62-1.85-2.66-6.05-1.22-.84.29-.43,2.34-1.79,3.05-2.82,1.47-7.95-1.58-10.12,3.96-2.54,6.47,2.59,8.2,1.97,10.64-.45,1.78-4.28,2.72-3.93,4.16,3.66,2.72,9.81,4.91,14.36,4.3,5.5-.73,6.36-8.33,12.19-9.29l-1.05-15.47Z"/>
    </g>
  </g>
</svg>